<svg xmlns="http://www.w3.org/2000/svg" xmlns:xlink="http://www.w3.org/1999/xlink" viewBox="0 0 551.84 176.89">
    <defs>
        <linearGradient id="Degradado_sin_nombre_32" x1="3967.37" y1="0.02" x2="4004.33" y2="38.9"
            gradientTransform="matrix(-1, 0, 0, 1, 4371, 0)" gradientUnits="userSpaceOnUse">
            <stop offset="0" stop-color="#e62537" />
            <stop offset="0.16" stop-color="#e72c3c" />
            <stop offset="0.4" stop-color="#e93e49" />
            <stop offset="0.67" stop-color="#ec5d5e" />
            <stop offset="0.97" stop-color="#f1877b" />
            <stop offset="1" stop-color="#f18b7e" />
        </linearGradient>
        <linearGradient id="Degradado_sin_nombre_27" x1="3947.94" y1="49.61" x2="4006.99" y2="-11.33"
            gradientTransform="matrix(-1, 0, 0, 1, 4371, 0)" gradientUnits="userSpaceOnUse">
            <stop offset="0" stop-color="#867d85" />
            <stop offset="0.27" stop-color="#a39ca2" />
            <stop offset="0.53" stop-color="#b9b3b8" />
            <stop offset="0.78" stop-color="#c6c1c5" />
            <stop offset="1" stop-color="#cbc6ca" />
        </linearGradient>
        <linearGradient id="Degradado_sin_nombre_27-2" x1="3966.19" y1="67.29" x2="4025.24" y2="6.34"
            xlink:href="#Degradado_sin_nombre_27" />
    </defs>
    <title>icysMedical</title>
    <g id="Capa_2" data-name="Capa 2">
        <g id="Capa_1-2" data-name="Capa 1">
            <path
                d="M406.21,17.35l.08-13a4.21,4.21,0,0,0-1.24-3A4.4,4.4,0,0,0,402,.09L386.51,0a4.31,4.31,0,0,0-4.37,4.25l-.11,17,20.16.14Z"
                fill="url(#Degradado_sin_nombre_32)" />
            <path
                d="M423.15,42.67a4.12,4.12,0,0,0,4.09-4.1l.09-14.66a4.18,4.18,0,0,0-1.21-3,4.05,4.05,0,0,0-2.82-1.18l-14.93-.1L385.29,42.46l21.47.13h0a2.33,2.33,0,0,1,.37,0Z"
                fill="url(#Degradado_sin_nombre_27)" />
            <path
                d="M380.3,49.44l.11,12v0a4.18,4.18,0,0,0,1.24,3,4.33,4.33,0,0,0,3.05,1.28l15.44.09a4.29,4.29,0,0,0,4.36-4.23l.09-15.7L384,45.79Z"
                fill="url(#Degradado_sin_nombre_27-2)" />
            <path d="M33.55,60.53,19.89,125.05H0L13.67,60.53Z" fill="#e10a2d" />
            <path
                d="M103,102.85C98.94,117,87.48,126.21,67.78,126.21c-21.58,0-30.72-12.11-30.72-28,0-19.12,12.45-39.17,39.39-39.17,19.41,0,29.39,10.07,29.84,23.86H86c-.08-4.43-2.17-10.23-10.38-10.23-12.34,0-17.37,15.1-17.37,25.48,0,7.69,2.41,14.12,11.49,14.12,6.41,0,10.33-3.09,13.22-9.44Z"
                fill="#e10a2d" />
            <path
                d="M121.92,125.06l4.77-22.69a3.46,3.46,0,0,0-.39-2.52L110.14,60.53h21.35c3,9.13,6.58,21.15,8.19,27.44,4.09-6.09,13.25-18.08,20.27-27.44h21.17L147.26,102a5.69,5.69,0,0,0-1.08,2.7l-4.28,20.4Z"
                fill="#e10a2d" />
            <path
                d="M192.86,105c.84,4.81,4.62,8.07,12.3,8.07,5.77,0,10.11-1.54,10.11-6.09,0-3.43-2-5.38-11.85-7.89-17.09-4.39-22.84-9.56-22.84-18.53,0-12.89,11.19-21.46,29.09-21.46,21.5,0,28.9,10.07,29.36,19.66H220.28c-.51-3.1-2.61-6.66-10.68-6.66-5,0-8,2.35-8,5.67,0,3.53,2.94,4.72,11.72,6.89,18.33,4.56,23.14,10.8,23.14,19.89,0,12.75-11.34,21.7-32.18,21.7-19,0-29.34-7.46-30.5-21.25Z"
                fill="#e10a2d" />
            <path
                d="M314.21,95.29c2.61-12.55,5.42-24.23,7.15-30.67h-.09c-3.66,7.52-24.25,39-38.33,60.42h-4.72c-3.57-16.62-10.69-51.65-12.13-60.33H266c-1.08,7.6-4.05,21.86-6.31,32.73L253.82,125h-5.25l13.67-64.62h7.55c4.81,21.74,11.42,52.94,12.13,57.58H282c3.44-5.56,24.31-37.52,37.36-57.58H327L313.34,125H307.9Z"
                fill="#e10a2d" />
            <path
                d="M330.9,104.49a15,15,0,0,0-.17,2.12c0,10.27,5.65,15.11,13.87,15.11,7.2,0,11.58-2.45,15.2-8.34h5C361.37,120.29,356.13,126,344,126c-11.32,0-18-7.2-18-19.11C326,93.48,335,81,350,81c12.49,0,17.79,8.27,17.79,17.83a26.88,26.88,0,0,1-.61,5.66Zm32.16-4.18c0-.08.08-.84.08-1.85,0-6.61-3.4-13.17-13.78-13.17-8.89,0-15.55,5.49-17.83,15Zm6-41.16L352.81,73.86H347l15.32-14.71Z"
                fill="#e10a2d" />
            <path
                d="M426.81,60.43l-11.07,52.05c-.86,4.09-1.79,8.26-2.56,12.35h-4.36c.17-1.36.59-3.81,1.26-7-3.22,4.9-7.72,8.2-16.48,8.2-11.75,0-17.89-7.84-17.89-19.18C375.71,93.61,385,81,399.77,81c10.61,0,15.2,5.74,16.14,9.12l6.28-29.69Zm-46.22,46.05c0,9.14,4.66,15.23,13.7,15.23,11,0,16.85-7.61,18.71-16.77,2.7-13.11-2.52-19.63-13.79-19.63C387.78,85.31,380.59,95.55,380.59,106.48Z"
                fill="#e10a2d" />
            <path d="M432.55,82.19h4.7l-9,42.64h-4.7Zm4.59-21.76h4.7l-1.88,9h-4.71Z" fill="#e10a2d" />
            <path
                d="M481.48,111.74c-2.73,6.81-8.16,14.28-21.29,14.28-12.76,0-18.13-8.63-18.13-18.92,0-13.37,8.94-26.1,23.68-26.1,13.63,0,17.55,9,17.79,14.87H478.9c-.67-5.16-4.46-10.57-13.68-10.57-11.6,0-18.28,10.61-18.28,21.45,0,8.55,4.39,15,14,15,8.28,0,12.68-4.13,15.73-10Z"
                fill="#e10a2d" />
            <path
                d="M526.74,111.57c-1.45,7-2.38,11.22-2.64,13.26h-4.7c.17-1.7.84-4.67,1.43-7.37-3.06,5.09-8.08,8.56-17.92,8.56-11,0-14.83-6.57-14.83-12.2,0-13.45,16.12-14.42,22.69-15,3.58-.34,10.35-.34,13.92-.34l.34-1.6c1.18-5.75-.19-11.57-11.33-11.57-8.78,0-12.84,2.87-14.45,8.44h-4.8C495.9,87.08,500.76,81,514.29,81c13.34,0,17.4,7.2,15.52,16Zm-2.75-9c-6,0-10,.09-13.63.43-8.77.76-17.15,2.54-17.15,10.48,0,4.89,3.79,8.1,10.47,8.1,12.25,0,17.34-6.58,20-17.58Z"
                fill="#e10a2d" />
            <path d="M533.51,124.83l13.63-64.4h4.7l-13.63,64.4Z" fill="#e10a2d" />
            <path
                d="M248.79,168.26a10.54,10.54,0,0,1-3.21-.56,5.66,5.66,0,0,1-2.77-1.9l.82-1a6.24,6.24,0,0,0,2.2,1.55,7.28,7.28,0,0,0,2.92.58,7,7,0,0,0,2.14-.34,3.55,3.55,0,0,0,1.72-1.21,3.67,3.67,0,0,0,.67-2.31,3,3,0,0,0-.77-2.18,5.82,5.82,0,0,0-1.91-1.23q-1.12-.45-2.43-.84a11.2,11.2,0,0,1-3.28-1.74,3.76,3.76,0,0,1-1.35-3.18,4.64,4.64,0,0,1,.72-2.63,4.75,4.75,0,0,1,2-1.69,6.14,6.14,0,0,1,2.7-.6,8.44,8.44,0,0,1,2.72.48,6.73,6.73,0,0,1,2.59,1.64l-.78,1.16a4.14,4.14,0,0,0-2.09-1.47,7.38,7.38,0,0,0-2.25-.41,5.22,5.22,0,0,0-1.78.33,3.81,3.81,0,0,0-1.55,1.06,2.87,2.87,0,0,0-.63,1.94,2.77,2.77,0,0,0,.61,1.83,4.42,4.42,0,0,0,1.57,1.18c.64.31,1.32.59,2,.85a21,21,0,0,1,2.61,1,5.79,5.79,0,0,1,2.07,1.54,3.91,3.91,0,0,1,.82,2.61,5.94,5.94,0,0,1-.67,2.85,4.83,4.83,0,0,1-2,2A7,7,0,0,1,248.79,168.26Z"
                fill="#575756" />
            <path
                d="M260,158.51a9.61,9.61,0,0,1,4.85-8.44,9.73,9.73,0,0,1,5-1.31,9.73,9.73,0,0,1,9.8,9.75,9.44,9.44,0,0,1-1.31,4.9,9.7,9.7,0,0,1-8.54,4.8,9.9,9.9,0,0,1-5-1.26,9.39,9.39,0,0,1-3.52-3.42A9.56,9.56,0,0,1,260,158.51Zm1.64,0a8.13,8.13,0,0,0,4,7.19,7.88,7.88,0,0,0,4.12,1.11,7.76,7.76,0,0,0,4.1-1.11,8.48,8.48,0,0,0,2.95-3,8.44,8.44,0,0,0,0-8.37,8.7,8.7,0,0,0-2.95-3,7.68,7.68,0,0,0-4.1-1.13,7.46,7.46,0,0,0-4.17,1.21,8.72,8.72,0,0,0-2.92,3.09A8,8,0,0,0,261.63,158.51Z"
                fill="#575756" />
            <path d="M286.52,134.23h1.65v33.64h-1.65Z" fill="#575756" />
            <path
                d="M302.83,168.35a5.65,5.65,0,0,1-4.19-1.54,5.79,5.79,0,0,1-1.64-4.05V149.29h1.64v13.08a4.92,4.92,0,0,0,1.25,3.16,4.7,4.7,0,0,0,3.43,1.38,6.89,6.89,0,0,0,3.54-1,7.84,7.84,0,0,0,2.71-2.6,6.93,6.93,0,0,0,1-3.77V149.29h1.64v18.58H310.8l-.2-5.79.29.92a6.58,6.58,0,0,1-1.69,2.7,9.15,9.15,0,0,1-2.89,1.93A8.82,8.82,0,0,1,302.83,168.35Z"
                fill="#575756" />
            <path
                d="M335.11,166a8.58,8.58,0,0,1-2.84,1.61,10.08,10.08,0,0,1-3.33.56,9.87,9.87,0,0,1-5-1.26,9.35,9.35,0,0,1-3.53-3.45,9.56,9.56,0,0,1-1.3-4.94,9.19,9.19,0,0,1,1.33-4.92,9.86,9.86,0,0,1,3.52-3.45,9.38,9.38,0,0,1,4.85-1.28,10.57,10.57,0,0,1,3.45.55,8.72,8.72,0,0,1,2.87,1.62l-.87,1.11a10,10,0,0,0-2.43-1.38,7.94,7.94,0,0,0-2.92-.55,7.84,7.84,0,0,0-4.13,1.13,8.45,8.45,0,0,0-2.94,3,8,8,0,0,0-1.09,4.17,8.17,8.17,0,0,0,8.25,8.25,8,8,0,0,0,2.8-.48A8.82,8.82,0,0,0,334.2,165Z"
                fill="#575756" />
            <path
                d="M341.1,142.93a1.18,1.18,0,0,1,.43-.92,1.47,1.47,0,0,1,1-.39,1.35,1.35,0,0,1,.95.39,1.23,1.23,0,0,1,.41.92,1.28,1.28,0,0,1-.41,1,1.35,1.35,0,0,1-.95.39,1.47,1.47,0,0,1-1-.39A1.23,1.23,0,0,1,341.1,142.93Zm.53,6.36h1.64v18.58h-1.64Z"
                fill="#575756" />
            <path
                d="M350.22,158.51a9.53,9.53,0,0,1,1.3-4.92,9.64,9.64,0,0,1,3.54-3.52,9.8,9.8,0,0,1,5-1.31,9.73,9.73,0,0,1,9.8,9.75,9.44,9.44,0,0,1-1.31,4.9A10.13,10.13,0,0,1,355,167a9.39,9.39,0,0,1-3.52-3.42A9.56,9.56,0,0,1,350.22,158.51Zm1.64,0a8.13,8.13,0,0,0,4,7.19,7.85,7.85,0,0,0,4.12,1.11,7.76,7.76,0,0,0,4.1-1.11,8.56,8.56,0,0,0,2.95-3,8.44,8.44,0,0,0,0-8.37,8.79,8.79,0,0,0-2.95-3,7.68,7.68,0,0,0-4.1-1.13,7.46,7.46,0,0,0-4.17,1.21,8.64,8.64,0,0,0-2.92,3.09A8,8,0,0,0,351.86,158.51Zm12-19.64-4.77,6.42h-1.31l4.25-6.42Z"
                fill="#575756" />
            <path
                d="M378.15,149.29l.2,5.94-.2-.92a7,7,0,0,1,3-4,9.18,9.18,0,0,1,5.07-1.45,5.7,5.7,0,0,1,4.17,1.54,5.52,5.52,0,0,1,1.62,4v13.46h-1.64V154.75a4.68,4.68,0,0,0-1.21-3.12,4.46,4.46,0,0,0-3.38-1.32,7.83,7.83,0,0,0-3.64.89,7.12,7.12,0,0,0-2.75,2.53,7,7,0,0,0-1,3.82v10.32h-1.64V149.29Z"
                fill="#575756" />
            <path
                d="M426.44,176.89a11.85,11.85,0,0,1-2.77-.33,11.17,11.17,0,0,1-2.8-1.16,15.49,15.49,0,0,1-3-2.32l1-1.11a12.13,12.13,0,0,0,4.05,2.78,10.39,10.39,0,0,0,3.43.65,10.21,10.21,0,0,0,4.92-1,5.72,5.72,0,0,0,2.53-2.63,9.86,9.86,0,0,0,.85-3.62l0-6.37.44.44a9,9,0,0,1-3.5,4.31,9.79,9.79,0,0,1-5.57,1.67,9.2,9.2,0,0,1-4.78-1.3,9.94,9.94,0,0,1-3.47-3.5,9.44,9.44,0,0,1-1.31-4.9,9.58,9.58,0,0,1,1.33-5A9.4,9.4,0,0,1,421.4,150a10.15,10.15,0,0,1,5-1.23,9.35,9.35,0,0,1,5.11,1.5,8.72,8.72,0,0,1,3.43,3.86l-.24.77.24-5.65h1.4v18.92a9.9,9.9,0,0,1-.92,4.2,7.26,7.26,0,0,1-3.09,3.23A11.62,11.62,0,0,1,426.44,176.89Zm-8.3-18.38a8.14,8.14,0,0,0,1.11,4.2,8.35,8.35,0,0,0,3,3,8,8,0,0,0,4.15,1.11,8.22,8.22,0,0,0,4.1-1,8.5,8.5,0,0,0,3-2.75,7.05,7.05,0,0,0,1.23-3.64v-2.46a8,8,0,0,0-1.56-3.43,8.83,8.83,0,0,0-2.92-2.39,8.63,8.63,0,0,0-8,.17,8,8,0,0,0-3,2.92A8.27,8.27,0,0,0,418.14,158.51Z"
                fill="#575756" />
            <path d="M445.12,134.23h1.64v33.64h-1.64Z" fill="#575756" />
            <path
                d="M453.71,158.51a9.53,9.53,0,0,1,1.3-4.92,9.64,9.64,0,0,1,3.54-3.52,9.8,9.8,0,0,1,5-1.31,9.7,9.7,0,0,1,9.79,9.75,9.43,9.43,0,0,1-1.3,4.9A10.13,10.13,0,0,1,458.53,167a9.39,9.39,0,0,1-3.52-3.42A9.56,9.56,0,0,1,453.71,158.51Zm1.64,0a8.23,8.23,0,0,0,1.08,4.22,8.37,8.37,0,0,0,2.94,3,7.91,7.91,0,0,0,4.13,1.11,7.76,7.76,0,0,0,4.1-1.11,8.56,8.56,0,0,0,2.95-3,8.44,8.44,0,0,0,0-8.37,8.79,8.79,0,0,0-2.95-3,7.68,7.68,0,0,0-4.1-1.13,7.46,7.46,0,0,0-4.17,1.21,8.64,8.64,0,0,0-2.92,3.09A8,8,0,0,0,455.35,158.51Z"
                fill="#575756" />
            <path
                d="M490.38,168.21a9.42,9.42,0,0,1-5.36-1.62,9.24,9.24,0,0,1-3.47-4l.33-1.16v6.47h-1.64V134.23h1.64v21l-.14-1.06a8.66,8.66,0,0,1,3.45-3.84,10,10,0,0,1,5.33-1.47,9.12,9.12,0,0,1,4.75,1.28,9.53,9.53,0,0,1,4.71,8.37,10.06,10.06,0,0,1-1.33,5.33,8.56,8.56,0,0,1-3.5,3.31A10.31,10.31,0,0,1,490.38,168.21Zm-.24-1.4a8.44,8.44,0,0,0,4.39-1.09,7.37,7.37,0,0,0,2.82-3,9.12,9.12,0,0,0,1-4.3,8.36,8.36,0,0,0-1-4.1,8.23,8.23,0,0,0-2.84-3,8,8,0,0,0-4.32-1.13,8.53,8.53,0,0,0-3.84.87,8.06,8.06,0,0,0-2.89,2.36,8.29,8.29,0,0,0-1.53,3.43v2.65a7,7,0,0,0,1.21,3.55,8.42,8.42,0,0,0,3,2.7A8.25,8.25,0,0,0,490.14,166.81Z"
                fill="#575756" />
            <path
                d="M514.6,168.21a9.64,9.64,0,0,1-4.83-1.23,9.23,9.23,0,0,1-3.45-3.43,9.75,9.75,0,0,1-1.28-5,10,10,0,0,1,1.33-5.26,8.93,8.93,0,0,1,3.57-3.33,10.89,10.89,0,0,1,5.05-1.16,9.08,9.08,0,0,1,8.25,5.55l-.2.63.24-5.7h1.4v18.58h-1.59v-6l.34.77a7.89,7.89,0,0,1-1.28,2.13,9.91,9.91,0,0,1-2,1.8,9.47,9.47,0,0,1-2.56,1.23A10,10,0,0,1,514.6,168.21Zm.29-1.4a8.48,8.48,0,0,0,4.08-1,7.8,7.8,0,0,0,4.12-6.61v-2.36a8,8,0,0,0-1.57-3.38,8.92,8.92,0,0,0-2.89-2.39,8,8,0,0,0-3.74-.89,8.36,8.36,0,0,0-4.13,1,7.82,7.82,0,0,0-3,2.89,8.38,8.38,0,0,0-1.11,4.37,8.14,8.14,0,0,0,1.11,4.2,8.32,8.32,0,0,0,3,3A7.91,7.91,0,0,0,514.89,166.81Z"
                fill="#575756" />
            <path d="M533.51,134.23h1.64v33.64h-1.64Z" fill="#575756" />
        </g>
    </g>
</svg>