<svg xmlns="http://www.w3.org/2000/svg" viewBox="0 0 147.4 141.75"><defs><style>.cls-1{fill:#6fc7f1;}</style></defs><title>ordenar</title><g id="Capa_2" data-name="Capa 2"><g id="Capa_1-2" data-name="Capa 1"><path class="cls-1" d="M32,0H4.81A4.81,4.81,0,0,0,0,4.81V32a4.81,4.81,0,0,0,4.81,4.82H32A4.82,4.82,0,0,0,36.79,32V4.81A4.81,4.81,0,0,0,32,0ZM27.16,27.16H9.62V9.62H27.16V27.16Z"/><path class="cls-1" d="M87.28,0H60.12a4.81,4.81,0,0,0-4.81,4.81V32a4.81,4.81,0,0,0,4.81,4.82H87.28A4.81,4.81,0,0,0,92.09,32V4.81A4.81,4.81,0,0,0,87.28,0ZM82.47,27.16H64.93V9.62H82.47Z"/><path class="cls-1" d="M142.59,0H115.43a4.81,4.81,0,0,0-4.81,4.81V32a4.81,4.81,0,0,0,4.81,4.82h27.16A4.81,4.81,0,0,0,147.4,32V4.81A4.81,4.81,0,0,0,142.59,0Zm-4.81,27.16H120.24V9.62h17.54Z"/><path class="cls-1" d="M32,52.49H4.81A4.8,4.8,0,0,0,0,57.29V84.46a4.8,4.8,0,0,0,4.81,4.8H32a4.81,4.81,0,0,0,4.82-4.8V57.29A4.81,4.81,0,0,0,32,52.49ZM27.16,79.65H9.62V62.1H27.16V79.65Z"/><path class="cls-1" d="M87.28,52.49H60.12a4.8,4.8,0,0,0-4.81,4.8V84.46a4.8,4.8,0,0,0,4.81,4.8H87.28a4.8,4.8,0,0,0,4.81-4.8V57.29A4.8,4.8,0,0,0,87.28,52.49Z"/><path class="cls-1" d="M142.59,52.49H115.43a4.8,4.8,0,0,0-4.81,4.8V84.46a4.8,4.8,0,0,0,4.81,4.8h27.16a4.8,4.8,0,0,0,4.81-4.8V57.29A4.8,4.8,0,0,0,142.59,52.49Zm-4.81,27.16H120.24V62.1h17.54Z"/><path class="cls-1" d="M32,105H4.81A4.81,4.81,0,0,0,0,109.77v27.17a4.81,4.81,0,0,0,4.81,4.81H32a4.81,4.81,0,0,0,4.82-4.81V109.77A4.82,4.82,0,0,0,32,105Zm-4.81,27.17H9.62V114.58H27.16v17.55Z"/><path class="cls-1" d="M87.28,105H60.12a4.81,4.81,0,0,0-4.81,4.81v27.17a4.81,4.81,0,0,0,4.81,4.81H87.28a4.81,4.81,0,0,0,4.81-4.81V109.77A4.81,4.81,0,0,0,87.28,105Zm-4.81,27.17H64.93V114.58H82.47Z"/><path class="cls-1" d="M142.59,105H115.43a4.81,4.81,0,0,0-4.81,4.81v27.17a4.81,4.81,0,0,0,4.81,4.81h27.16a4.81,4.81,0,0,0,4.81-4.81V109.77A4.81,4.81,0,0,0,142.59,105Zm-4.81,27.17H120.24V114.58h17.54Z"/></g></g></svg>