<svg xmlns="http://www.w3.org/2000/svg" viewBox="0 0 146.9 146.86"><defs><style>.cls-1{fill:#6fc7f1;}.cls-2{fill:none;stroke:#6fc7f1;stroke-miterlimit:10;stroke-width:8px;}</style></defs><title>showmore</title><g id="Capa_2" data-name="Capa 2"><g id="Capa_1-2" data-name="Capa 1"><g id="Layer_1" data-name="Layer 1"><path class="cls-1" d="M33.06,86.9A13.47,13.47,0,1,0,19.59,73.43,13.48,13.48,0,0,0,33.06,86.9Zm0-22.45a9,9,0,1,1-9,9A9,9,0,0,1,33.06,64.45Z"/><path class="cls-1" d="M60,73.43A13.47,13.47,0,1,0,73.45,60,13.48,13.48,0,0,0,60,73.43Zm22.45,0a9,9,0,1,1-9-9A9,9,0,0,1,82.43,73.43Z"/><path class="cls-1" d="M113.84,60a13.47,13.47,0,1,0,13.47,13.46A13.48,13.48,0,0,0,113.84,60Zm0,22.44a9,9,0,1,1,9-9A9,9,0,0,1,113.84,82.41Z"/></g><rect class="cls-2" x="4" y="4" width="138.9" height="138.86" rx="33.59"/></g></g></svg>