<svg xmlns="http://www.w3.org/2000/svg" viewBox="0 0 141.73 141.73"><defs><style>.cls-1{fill:#6fc7f1;}.cls-2{fill:none;}</style></defs><title>download_1</title><g id="Capa_2" data-name="Capa 2"><g id="Capa_1-2" data-name="Capa 1"><g id="upload"><path class="cls-1" d="M28.66,141.73h84.42a28.65,28.65,0,0,0,28.65-28.65V28.66A28.66,28.66,0,0,0,113.08,0H28.66A28.66,28.66,0,0,0,0,28.66v84.42A28.66,28.66,0,0,0,28.66,141.73ZM33.18,20.18a3.92,3.92,0,0,1,3.92-3.92h68.09a3.92,3.92,0,0,1,3.92,3.92v2.41a3.93,3.93,0,0,1-3.92,3.92H37.1a3.93,3.93,0,0,1-3.92-3.92ZM32.77,87a2.14,2.14,0,0,1,1.5-1.12L50.43,86V42.88a5.88,5.88,0,0,1,1.88-3.62,5.78,5.78,0,0,1,3-1.38L86.43,38a4.45,4.45,0,0,1,4.82,4.06L91.43,86l16.13-.08a2.06,2.06,0,0,1,1.29.91,2.18,2.18,0,0,1-.33,2.5L70.81,125.51,33.6,89.59A2.16,2.16,0,0,1,32.77,87Z"/></g><path class="cls-2" d="M37.1,26.51a3.93,3.93,0,0,1-3.92-3.92V20.18a3.92,3.92,0,0,1,3.92-3.92h68.09a3.92,3.92,0,0,1,3.92,3.92v2.41a3.93,3.93,0,0,1-3.92,3.92"/></g></g></svg>