<svg xmlns="http://www.w3.org/2000/svg" viewBox="0 0 141.7 141.7">
  <title>notify</title>
  <g>
    <rect width="141.7" height="141.73" rx="35" fill="#fff"/>
    <path d="M77.2,36.6a2.1,2.1,0,0,1-2.1-2.1V27.3a4.3,4.3,0,0,0-8.5,0v7.2a2.1,2.1,0,0,1-4.2,0V27.3a8.5,8.5,0,1,1,17,0v7.2A2.1,2.1,0,0,1,77.2,36.6Z" fill="#000"/>
    <path d="M70.9,120.9A14.9,14.9,0,0,1,56,106a2.1,2.1,0,0,1,4.2,0,10.7,10.7,0,0,0,21.3,0,2.1,2.1,0,0,1,4.2,0A14.9,14.9,0,0,1,70.9,120.9Z" fill="#000"/>
    <path d="M107,108.1H34.7a6.4,6.4,0,0,1-6.4-6.3,6.5,6.5,0,0,1,2.3-4.9A29.6,29.6,0,0,0,41.1,74.3V61.4a29.8,29.8,0,1,1,59.5,0V74.3a29.9,29.9,0,0,0,10.5,22.6,6.2,6.2,0,0,1,2.3,4.9A6.4,6.4,0,0,1,107,108.1ZM70.9,35.9A25.5,25.5,0,0,0,45.4,61.4V74.3a33.7,33.7,0,0,1-12,25.8,2.1,2.1,0,0,0-.8,1.7,2.2,2.2,0,0,0,2.1,2.1H107a2.1,2.1,0,0,0,2.1-2.1,2.1,2.1,0,0,0-.7-1.7,33.7,33.7,0,0,1-12-25.8V61.4A25.5,25.5,0,0,0,70.9,35.9Z" fill="#000"/>
  </g>
</svg>
