<svg xmlns="http://www.w3.org/2000/svg" viewBox="0 0 144.3 194">
  <title>upload</title>
  <g>
    <g>
      <path d="M1.3,170.2V20.5C1.6,18.8,3.2,9.6,11.5,4A23.3,23.3,0,0,1,23.6,0h67l53.7,56c-.1,38.7-.1,77.3-.2,116a22.2,22.2,0,0,1-5.9,12.9,21.7,21.7,0,0,1-13.9,6.6L20.6,192a25.5,25.5,0,0,1-13.9-8.6A25.6,25.6,0,0,1,1.3,170.2Z" fill="#6dc7f1"/>
      <polygon points="90.6 0 90.6 55.5 144.3 56 90.6 0" fill="#a5daf2"/>
    </g>
    <path d="M70.7,185.5a11,11,0,0,0,.2-1.8V83.7l1,2.2a19,19,0,0,0,4,5.7L104,119.7a10.4,10.4,0,0,0,13.4,1.4,10.1,10.1,0,0,0,2.2-14.1l-.9-1.1L68,55.2a10.2,10.2,0,0,0-14.3,0h0L3,105.9a10.1,10.1,0,0,0,0,14.4,3.9,3.9,0,0,0,1,.8,10.4,10.4,0,0,0,13.4-1.4l28.1-28a20.8,20.8,0,0,0,3.7-5.1l1.4-3v99.6a10.5,10.5,0,0,0,8.5,10.7A10.2,10.2,0,0,0,70.7,185.5Z" fill="#fff"/>
  </g>
</svg>
