<svg xmlns="http://www.w3.org/2000/svg" viewBox="0 0 141.73 141.73"><defs><style>.cls-1{fill:#fff;}.cls-2{fill:#010101;}</style></defs><title>ver</title><g id="Capa_2" data-name="Capa 2"><g id="Capa_1-2" data-name="Capa 1"><rect class="cls-1" width="141.73" height="141.73" rx="34.98"/><path class="cls-2" d="M82.63,79.72A11.08,11.08,0,1,0,71.55,90.8,11.09,11.09,0,0,0,82.63,79.72Z"/><path class="cls-2" d="M15.41,78.26a2.23,2.23,0,0,0,0,2.93,93,93,0,0,0,16,13.65c11.83,8.07,25.8,13.67,40.11,13.67s28.29-5.6,40.12-13.67a92.7,92.7,0,0,0,16-13.65,2.21,2.21,0,0,0,0-2.93,92.7,92.7,0,0,0-16-13.65c-11.83-8.07-25.8-13.68-40.12-13.68S43.27,56.54,31.44,64.61A93,93,0,0,0,15.41,78.26Zm31.78,1.46a24.36,24.36,0,1,1,24.36,24.36A24.39,24.39,0,0,1,47.19,79.72ZM109.07,68.2A94.91,94.91,0,0,1,123,79.73a95.24,95.24,0,0,1-13.81,11.45,80.66,80.66,0,0,1-17.53,9.14,28.73,28.73,0,0,0,0-41.19,80.85,80.85,0,0,1,17.43,9.07ZM51.46,59.13a28.73,28.73,0,0,0,0,41.19A81.33,81.33,0,0,1,34,91.25a94.68,94.68,0,0,1-13.9-11.53A94.67,94.67,0,0,1,33.94,68.27a80.8,80.8,0,0,1,17.52-9.14Z"/><path class="cls-2" d="M52.73,47.12a2.21,2.21,0,0,0,.81-3L46.9,32.59a2.22,2.22,0,0,0-3.84,2.21L49.7,46.31A2.22,2.22,0,0,0,52.73,47.12Z"/><path class="cls-2" d="M99.24,31.78a2.22,2.22,0,0,0-3,.81L89.57,44.1a2.21,2.21,0,0,0,3.83,2.21l6.65-11.51A2.22,2.22,0,0,0,99.24,31.78Z"/><path class="cls-2" d="M73.77,39.86V26.57a2.22,2.22,0,0,0-4.43,0V39.86a2.22,2.22,0,1,0,4.43,0Z"/></g></g></svg>